<svg viewBox="0 0 42 50" fill="none" xmlns="http://www.w3.org/2000/svg">
<path d="M21.0787 10.126C23.7937 10.126 25.9946 7.92506 25.9946 5.21009C25.9946 2.49511 23.7937 0.294189 21.0787 0.294189C18.3638 0.294189 16.1628 2.49511 16.1628 5.21009C16.1628 7.92506 18.3638 10.126 21.0787 10.126Z" fill="#A1CA60"/>
<path d="M37.3287 19.9236C38.509 19.7647 39.5917 19.1834 40.3763 18.2874C41.1609 17.3914 41.5942 16.2414 41.596 15.0504C41.5832 13.8345 41.1225 12.666 40.3022 11.7685C39.4818 10.871 38.3593 10.3075 37.1495 10.1857C36.9903 10.177 36.8307 10.177 36.6715 10.1857H26.8739C25.5811 10.1901 24.3419 10.7027 23.4237 11.6128C22.5056 12.523 21.9822 13.7577 21.9665 15.0504C21.9148 15.2277 21.807 15.3834 21.6593 15.4942C21.5115 15.605 21.3319 15.6649 21.1472 15.6649C20.9625 15.6649 20.7829 15.605 20.6351 15.4942C20.4874 15.3834 20.3796 15.2277 20.3279 15.0504C20.3328 13.8413 19.8943 12.6723 19.0953 11.7648C18.2963 10.8573 17.1923 10.2742 15.9923 10.126H4.9401C3.78608 10.2735 2.72111 10.8234 1.93272 11.6789C1.14432 12.5344 0.683056 13.6407 0.630153 14.8029V15.3064C0.708332 16.557 1.26031 17.7308 2.17365 18.5886C3.087 19.4465 4.29301 19.9239 5.54605 19.9236H16.2057L14.4988 20.7344L3.63431 25.7954L3.39534 25.8978C2.64257 26.2615 1.99417 26.81 1.51064 27.492C1.02711 28.174 0.724193 28.9674 0.630153 29.7981C0.621655 29.9658 0.621655 30.1339 0.630153 30.3016C0.614937 31.2021 0.847827 32.0895 1.30332 32.8664C1.7588 33.6434 2.41932 34.28 3.21253 34.7066C4.00573 35.1331 4.90103 35.3332 5.80036 35.2848C6.69969 35.2365 7.56836 34.9415 8.31124 34.4324L14.8572 29.8578L17.6992 27.7925L17.52 29.7981L16.6666 39.647L16.2996 43.8716L16.2569 44.3922C16.2526 44.449 16.2526 44.506 16.2569 44.5629C16.3098 45.8323 16.8513 47.0322 17.7682 47.9117C18.6851 48.7912 19.9065 49.2823 21.1771 49.2823C22.4476 49.2823 23.669 48.7912 24.5859 47.9117C25.5029 47.0322 26.0443 45.8323 26.0972 44.5629C26.1015 44.5117 26.1015 44.4604 26.0972 44.4092V44.1361V43.9825V43.8545L25.7302 39.5872L24.8768 29.7384L24.7061 27.8181L27.4628 29.7384L33.9832 34.4324C34.6987 34.922 35.531 35.2137 36.3956 35.2778C37.2603 35.3419 38.1265 35.1762 38.9065 34.7975C39.6864 34.4188 40.3523 33.8406 40.8366 33.1214C41.321 32.4023 41.6065 31.5679 41.6642 30.7028V29.8493C41.58 29.0057 41.2787 28.1983 40.7896 27.5058C40.3005 26.8133 39.6403 26.2593 38.8734 25.8978L38.6174 25.7783L38.4126 25.6844L27.7871 20.7771L26.0802 19.9663L25.9265 19.9236L26.2935 19.9748L37.3287 19.9236Z" fill="#A1CA60"/>
</svg>