<svg viewBox="0 0 70 25" fill="none" xmlns="http://www.w3.org/2000/svg">
<path d="M10.2419 4.93013C11.6033 4.93013 12.7069 3.82648 12.7069 2.46507C12.7069 1.10365 11.6033 0 10.2419 0C8.88044 0 7.77679 1.10365 7.77679 2.46507C7.77679 3.82648 8.88044 4.93013 10.2419 4.93013Z" fill="#A1CA60"/>
<path d="M18.3591 9.8362C19.5864 9.69524 20.5353 8.65352 20.5353 7.38832V7.37113C20.5319 6.76948 20.3119 6.22283 19.9509 5.79996C19.5486 5.31863 18.9642 4.9989 18.3075 4.93701C18.2319 4.93013 18.1528 4.9267 18.0703 4.9267H13.1436C12.425 4.9267 11.7752 5.23612 11.3249 5.72776C10.9226 6.16439 10.6785 6.74885 10.6785 7.39176C10.6785 7.61867 10.4963 7.80433 10.2694 7.80433C10.0425 7.80433 9.85683 7.61867 9.85683 7.39176V7.37457C9.85683 6.7626 9.63336 6.20221 9.26205 5.77245C8.87355 5.31519 8.32003 5.00577 7.69431 4.9267H2.15908C1.52305 5.00233 0.962648 5.32551 0.570713 5.79308C0.240662 6.18845 0.0309423 6.69384 0 7.24737V7.50178C0.0653225 8.80479 1.14486 9.83964 2.46507 9.83964H7.80089L6.93106 10.2453L1.50586 12.7723L1.38553 12.8273C0.642911 13.1917 0.110017 13.9206 0.0171901 14.7801V14.787C0.0103141 14.8695 0.00343803 14.9554 0.00343803 15.0414C0.00343803 16.3994 1.10361 17.503 2.46507 17.503C2.97389 17.503 3.44834 17.3483 3.84028 17.0836L7.11672 14.7904L7.12703 14.7835L8.56413 13.7762L8.47474 14.7835V14.7904L8.04155 19.724L7.85589 21.8384L7.85246 21.8521L7.83183 22.1168C7.82839 22.1443 7.82839 22.1718 7.82839 22.1993V22.2165C7.83527 23.5677 8.93887 24.6644 10.2935 24.6644C11.6549 24.6644 12.7585 23.5608 12.7585 22.1993C12.7585 22.1753 12.7585 22.1512 12.7551 22.1237L12.7516 22.0653L12.7448 21.9862L12.7379 21.9106L12.7345 21.8521L12.731 21.8452L12.5454 19.7274L12.1122 14.7938V14.787L12.0331 13.8174L13.4117 14.7801L13.4186 14.787L16.7088 17.087C17.1008 17.3517 17.5718 17.5064 18.0806 17.5064C19.3802 17.5064 20.4494 16.4957 20.5388 15.2167V14.787H20.5216C20.5216 14.7835 20.5216 14.7835 20.5182 14.7801C20.4288 13.924 19.8959 13.1952 19.1567 12.8307L19.0295 12.7723L18.9229 12.7241L13.6043 10.2453L12.731 9.83964L12.6726 9.81213C12.731 9.82245 12.7963 9.83276 12.8582 9.83964H18.3591V9.8362Z" fill="#A1CA60"/>
<path d="M30.7841 6.74201C30.7704 6.88641 30.6775 6.96548 30.5331 6.96548H29.3367C29.1923 6.96548 29.072 6.8589 29.072 6.71451V5.17427C29.072 4.662 28.6629 4.22537 28.1368 4.22537C27.6246 4.22537 27.2017 4.65857 27.2017 5.17427V8.22724C27.2017 8.75326 27.6211 9.17613 28.1368 9.17613C28.491 9.17613 28.8073 9.2277 29.072 9.34804C29.4674 9.49243 29.8077 9.72966 30.0862 10.0322C30.5194 10.4929 30.7841 11.1255 30.7841 11.8234V19.6002C30.7841 20.7589 30.0725 21.694 29.072 22.0756C28.7694 22.1822 28.4669 22.2475 28.1368 22.2475C27.8068 22.2475 27.5042 22.1822 27.2017 22.0756C26.2012 21.694 25.4896 20.7589 25.4896 19.6002V15.76C25.4896 15.5881 25.5686 15.509 25.7405 15.509H26.937C27.0814 15.509 27.2017 15.6156 27.2017 15.76V19.6037C27.2017 20.1159 27.6211 20.5388 28.1368 20.5388C28.6629 20.5388 29.072 20.1194 29.072 19.6037V11.8234C29.072 11.3111 28.6629 10.8745 28.1368 10.8745C27.7827 10.8745 27.4664 10.8229 27.2017 10.7026C26.7926 10.5582 26.466 10.3347 26.2012 10.0322C25.768 9.55776 25.4896 8.92516 25.4896 8.23068V5.17771C25.4896 4.01909 26.2012 3.08395 27.2017 2.70233C27.4664 2.58543 27.7793 2.53043 28.1368 2.53043C28.4944 2.53043 28.8073 2.582 29.072 2.70233C30.0725 3.08395 30.7841 4.01909 30.7841 5.17771V6.74201Z" fill="black"/>
<path d="M37.2854 19.7343C37.2854 20.8413 36.6287 21.7215 35.6798 22.0894C35.4048 22.1959 35.1023 22.2475 34.7722 22.2475C34.4422 22.2475 34.1534 22.1959 33.8783 22.0894C32.9294 21.7352 32.259 20.8138 32.259 19.7343V7.46742C32.259 7.42616 32.259 7.4021 32.2728 7.38834C32.3003 7.28176 32.3793 7.23019 32.4962 7.23019H33.6411C33.7992 7.23019 33.8783 7.30927 33.8783 7.46742V19.7343C33.8783 20.2466 34.2599 20.6282 34.7722 20.6282C35.2604 20.6282 35.6661 20.2466 35.6661 19.7343V7.46742C35.6661 7.42616 35.6661 7.4021 35.6798 7.38834C35.7073 7.28176 35.7864 7.23019 35.9033 7.23019H37.0482C37.1651 7.23019 37.2441 7.28176 37.2717 7.38834C37.2854 7.4021 37.2854 7.4296 37.2854 7.46742V19.7343Z" fill="black"/>
<path d="M47.1972 21.9965C47.1972 22.0378 47.1972 22.0618 47.1835 22.0756C47.156 22.1925 47.0769 22.2475 46.96 22.2475H45.8151C45.6983 22.2475 45.6192 22.1959 45.5917 22.0756C45.5779 22.0618 45.5779 22.0343 45.5779 21.9965V9.75712C45.5779 9.24485 45.1688 8.86323 44.684 8.86323C44.1958 8.86323 43.7902 9.24485 43.7902 9.75712V21.9965C43.7902 22.1546 43.7111 22.2337 43.5529 22.2337H42.4081H42.3565L42.3427 22.22C42.2499 22.1787 42.1983 22.1271 42.1846 22.0618C42.1708 22.0481 42.1708 22.0343 42.1708 21.9965V9.74337C42.1708 9.2311 41.7617 8.84948 41.277 8.84948C40.7647 8.84948 40.3831 9.2311 40.3831 9.74337V21.9827C40.3831 22.1409 40.304 22.22 40.1321 22.22H39.001C38.8841 22.22 38.805 22.1684 38.7775 22.0481C38.7638 21.9965 38.75 21.969 38.75 21.9827V9.74337C38.75 8.66383 39.4204 7.74243 40.3831 7.38832C40.6719 7.27142 40.9744 7.21642 41.277 7.21642C41.5932 7.21642 41.882 7.28174 42.1846 7.38832C42.5009 7.50865 42.7622 7.67711 42.9891 7.90058C43.2538 7.64961 43.5151 7.49146 43.7902 7.40207C44.0789 7.28518 44.3815 7.23017 44.684 7.23017C45.0003 7.23017 45.2891 7.29549 45.5917 7.40207C46.5406 7.76994 47.1972 8.65351 47.1972 9.75712V21.9965Z" fill="black"/>
<path d="M50.2777 15.0483V19.7206C50.2777 20.2328 50.6731 20.6144 51.1613 20.6144C51.6736 20.6144 52.0552 20.2328 52.0552 19.7206V16.3788C52.0552 16.2206 52.1343 16.1416 52.3062 16.1416H53.4373C53.5576 16.1416 53.6332 16.1931 53.6745 16.2997C53.6745 16.341 53.6883 16.341 53.6883 16.3788V19.7206C53.6883 20.8001 52.9903 21.7352 52.0552 22.0756C51.7664 22.1925 51.4638 22.2475 51.1613 22.2475C50.8588 22.2475 50.5562 22.1959 50.2674 22.0756C49.3185 21.7077 48.6481 20.8242 48.6481 19.7206V9.74339C48.6481 8.69136 49.3185 7.75621 50.2674 7.4021C50.5184 7.2852 50.8209 7.23019 51.1613 7.23019C51.4776 7.23019 51.7801 7.28176 52.0552 7.38834C53.0041 7.76996 53.6883 8.65354 53.6883 9.74339V13.6524V13.6662V14.7973C53.6883 14.9039 53.6092 14.9933 53.5164 15.0345C53.4751 15.0345 53.4751 15.0483 53.4373 15.0483H50.2777ZM50.2777 13.4152H52.0552V9.74339C52.0552 9.25519 51.6736 8.84951 51.1613 8.84951C50.6731 8.84951 50.2777 9.25863 50.2777 9.74339V13.4152Z" fill="black"/>
<path d="M60.1621 22.0103C60.1621 22.0515 60.1483 22.0515 60.1483 22.0893C60.107 22.1959 60.0314 22.2475 59.9111 22.2475H58.78C58.6631 22.2475 58.584 22.1959 58.5427 22.0893C58.5427 22.0481 58.529 22.0481 58.529 22.0103V9.75713C58.529 9.26893 58.1474 8.86324 57.6351 8.86324C57.1469 8.86324 56.7515 9.27236 56.7515 9.75713V21.9965C56.7515 22.1684 56.6725 22.2475 56.5006 22.2475H55.3694C55.2629 22.2475 55.1735 22.1684 55.1322 22.0756C55.1322 22.0343 55.1185 22.0343 55.1185 21.9965V9.75713C55.1185 8.65008 55.8026 7.76995 56.7515 7.40208C57.0266 7.2955 57.3188 7.24393 57.6351 7.24393C57.9652 7.24393 58.2677 7.2955 58.5427 7.40208C59.4916 7.76995 60.1621 8.69134 60.1621 9.75713V22.0103Z" fill="black"/>
<path d="M65.9104 12.6382C66.1202 12.8892 66.3058 13.1505 66.409 13.453C66.5293 13.7418 66.5809 14.0306 66.5809 14.3366V21.9965C66.5809 22.1684 66.5018 22.2475 66.3299 22.2475H65.1988C65.0922 22.2475 65.0028 22.1684 64.9615 22.0756C64.9615 22.0343 64.9478 22.0343 64.9478 21.9965V14.3366C64.9478 13.8484 64.5662 13.453 64.0539 13.453H63.3835H63.1738H63.1463V21.9931C63.1463 22.165 63.0672 22.2441 62.909 22.2441H61.7642C61.6576 22.2441 61.5785 22.1925 61.5407 22.0997V2.59572C61.582 2.50289 61.661 2.45132 61.7642 2.45132H62.909C63.0259 2.45132 63.0947 2.50289 63.1325 2.62323C63.1463 2.63698 63.1463 2.66448 63.1463 2.7023V11.8234H63.1738H64.0539C64.5662 11.8234 64.9478 11.4418 64.9478 10.9536V7.4124C64.9478 7.25425 65.0269 7.17518 65.1988 7.17518H66.3299C66.4468 7.17518 66.5259 7.22675 66.5671 7.34708C66.5671 7.36083 66.5809 7.37458 66.5809 7.4124V10.9536C66.5809 11.2424 66.5293 11.5312 66.409 11.8234C66.3058 12.1259 66.1236 12.3907 65.9104 12.6382Z" fill="black"/>
<path d="M69.9123 4.63792C70.0292 4.76857 70.0292 4.90265 69.9123 5.03329L68.9909 5.92718C68.8741 6.03376 68.7675 6.04407 68.6746 5.96844L68.5956 5.92718L67.6742 4.99204C67.5814 4.88546 67.5814 4.70324 67.7017 4.59666L68.5956 3.70278C68.7022 3.5962 68.8328 3.60995 68.9394 3.65121C68.9669 3.66496 68.9806 3.67871 68.9909 3.71653L69.9123 4.63792ZM69.651 22.0103C69.651 22.1684 69.572 22.2475 69.4001 22.2475H68.269C68.1521 22.2475 68.073 22.1959 68.0317 22.0894V22.0103V7.46742C68.0317 7.30927 68.1108 7.23019 68.269 7.23019H69.4001C69.5307 7.23019 69.6098 7.28177 69.6373 7.4021C69.651 7.41585 69.651 7.4296 69.651 7.46742V22.0103Z" fill="black"/>
</svg>
